<svg width="24" height="24" viewBox="0 0 24 24" fill="none" xmlns="http://www.w3.org/2000/svg">
  <path fill-rule="evenodd" clip-rule="evenodd" d="M9.316 16.535a.5.5 0 01.649.28v.002l.005.01.022.051a3.793 3.793 0 00.503.804c.366.445.863.818 1.505.818.642 0 1.14-.373 1.505-.818a3.793 3.793 0 00.525-.854l.005-.011.465.183.465.184a.5.5 0 10-.93-.367M9.5 17l-.465.184a.5.5 0 01.281-.65M14.5 17l.465.184v.001l-.002.003-.002.007-.01.022a3.432 3.432 0 01-.16.332 4.803 4.803 0 01-.513.769c-.457.555-1.21 1.182-2.278 1.182s-1.821-.627-2.278-1.182a4.803 4.803 0 01-.673-1.1l-.01-.023-.002-.007-.001-.003-.001-.001L9.5 17M11 6.5h-1v-.035a2.97 2.97 0 01.027-.34c.027-.211.08-.502.192-.8.111-.297.29-.627.582-.886A1.757 1.757 0 0112 4c.498 0 .897.17 1.2.439.291.26.47.59.58.885A3.583 3.583 0 0114 6.465v.034l-.5.001H13v.001-.011l-.002-.05a2.717 2.717 0 00-.154-.764 1.22 1.22 0 00-.309-.49A.76.76 0 0012 5a.76.76 0 00-.535.186 1.22 1.22 0 00-.31.49A2.579 2.579 0 0011 6.49v.012V6.5z" fill="#000"/>
  <path fill-rule="evenodd" clip-rule="evenodd" d="M8.94 6.666C9.622 5.909 10.648 5.5 12 5.5s2.379.41 3.06 1.166c.671.746.94 1.758.94 2.834 0 1.34.675 2.609 1.4 3.575a10.72 10.72 0 001.307 1.441c.038.035.067.06.087.077l.021.019.005.004a.502.502 0 01.034.738L18.5 15l.354.354h-.001l-.001.002-.003.002-.008.008a2.516 2.516 0 01-.11.099c-.073.063-.18.15-.32.252a7.787 7.787 0 01-1.26.735c-1.127.53-2.824 1.048-5.151 1.048s-4.024-.518-5.15-1.048a7.785 7.785 0 01-1.261-.735 5.006 5.006 0 01-.43-.351l-.008-.008-.003-.003s-.002-.001.352-.355l-.354.354a.5.5 0 01.034-.738l.005-.004.021-.019c.02-.017.05-.042.087-.077A10.72 10.72 0 006.6 13.075C7.324 12.109 8 10.841 8 9.5c0-1.076.269-2.088.94-2.834zm-2.674 8.306c.234.162.569.368 1.01.576.998.47 2.55.952 4.724.952 2.173 0 3.726-.482 4.725-.952.44-.208.775-.414 1.009-.576a11.743 11.743 0 01-1.134-1.297C15.824 12.641 15 11.159 15 9.5c0-.924-.231-1.662-.684-2.166C13.87 6.841 13.147 6.5 12 6.5c-1.147 0-1.871.34-2.316.834C9.231 7.838 9 8.576 9 9.5c0 1.66-.824 3.141-1.6 4.175a11.743 11.743 0 01-1.134 1.297z" fill="#000"/>
</svg>