<svg width="24" height="24" viewBox="0 0 24 24" fill="none" xmlns="http://www.w3.org/2000/svg"><path fill-rule="evenodd" d="M9.316 16.785a.5.5 0 0 1 .649.28v.002l.005.01.022.051c.133.288.302.558.503.804.366.445.863.818 1.505.818.642 0 1.14-.373 1.505-.818.212-.26.389-.547.525-.854l.005-.01.465.182.465.184a.501.501 0 0 0-.826-.535.499.499 0 0 0-.104.168l-4.719-.282Zm.184.465-.465.184a.5.5 0 0 1 .281-.649l.184.465Zm5 0 .465.184-.002.004-.002.007-.01.022c-.174.396-.4.766-.673 1.101-.457.555-1.21 1.182-2.278 1.182s-1.821-.627-2.278-1.182a4.808 4.808 0 0 1-.673-1.1l-.01-.023-.002-.007-.001-.003h-.001l.465-.185h5ZM11 6.75h-1v-.035c.01-.39.085-.774.219-1.14.111-.297.29-.627.582-.886.33-.291.758-.448 1.199-.439.498 0 .897.17 1.2.44.291.26.47.59.58.884.135.366.21.752.22 1.141v.034l-.5.001H13v-.01l-.002-.05a2.714 2.714 0 0 0-.154-.764 1.218 1.218 0 0 0-.309-.49A.76.76 0 0 0 12 5.25a.76.76 0 0 0-.535.186 1.22 1.22 0 0 0-.31.49A2.58 2.58 0 0 0 11 6.74v.012-.002Z" fill="#484848"/><path fill-rule="evenodd" d="M8.94 6.916C9.622 6.16 10.648 5.75 12 5.75s2.379.41 3.06 1.166c.671.746.94 1.758.94 2.834 0 1.34.675 2.61 1.4 3.575.415.55.882 1.058 1.394 1.518l.021.02.005.003a.502.502 0 0 1 .034.738l-.002.002-.003.002-.008.008c-.137.125-.28.242-.43.351a7.79 7.79 0 0 1-1.26.735c-1.127.53-2.824 1.048-5.151 1.048s-4.024-.518-5.15-1.048a7.792 7.792 0 0 1-1.261-.735 5.032 5.032 0 0 1-.43-.35l-.011-.012s-.002 0 .352-.355l-.354.354a.5.5 0 0 1 .034-.738l.005-.004.021-.019c.02-.017.05-.042.087-.077.478-.44.916-.922 1.307-1.44C7.324 12.358 8 11.09 8 9.75c0-1.076.269-2.088.94-2.834Zm-2.674 8.306c.234.162.569.368 1.01.576.998.47 2.55.952 4.724.952 2.173 0 3.726-.482 4.725-.952.44-.208.775-.414 1.009-.576a11.66 11.66 0 0 1-1.134-1.297c-.776-1.034-1.6-2.516-1.6-4.175 0-.924-.231-1.662-.684-2.166-.446-.493-1.169-.834-2.316-.834-1.147 0-1.871.34-2.316.834C9.231 8.088 9 8.826 9 9.75c0 1.66-.824 3.141-1.6 4.175-.346.46-.725.893-1.134 1.297Z" fill="#484848"/></svg>