<svg width="24" height="24" viewBox="0 0 24 24" fill="none" xmlns="http://www.w3.org/2000/svg"><path fill-rule="evenodd" d="M5.5 5a.5.5 0 0 0-.5.5v9a.5.5 0 0 0 .5.5H8a.5.5 0 0 1 .468.676l-.915 2.44 4.153-3.02A.5.5 0 0 1 12 15h6.5a.5.5 0 0 0 .5-.5v-9a.5.5 0 0 0-.5-.5h-13ZM4 5.5A1.5 1.5 0 0 1 5.5 4h13A1.5 1.5 0 0 1 20 5.5v9a1.5 1.5 0 0 1-1.5 1.5h-6.337l-5.369 3.904a.5.5 0 0 1-.762-.58L7.279 16H5.5A1.5 1.5 0 0 1 4 14.5v-9Z" fill="#484848"/><path d="M9 10a1 1 0 1 1-2 0 1 1 0 0 1 2 0Zm4 0a1 1 0 1 1-2 0 1 1 0 0 1 2 0Zm4 0a1 1 0 1 1-2 0 1 1 0 0 1 2 0Z" fill="#484848"/></svg>