<svg width="24px" height="24px" viewBox="0 0 24 24" fill="none" xmlns="http://www.w3.org/2000/svg">
  <path d="M12 3c-4.972 0-9 3.903-9 8.716 0 3.851 2.579 7.117 6.154 8.269.45.082.615-.188.615-.42 0-.206-.008-.754-.012-1.481-2.503.526-3.031-1.17-3.031-1.17-.41-1.005-1.001-1.275-1.001-1.275-.816-.54.063-.529.063-.529.903.061 1.378.899 1.378.899.803 1.332 2.107.947 2.622.724.08-.563.312-.947.57-1.165-2-.218-4.1-.967-4.1-4.307 0-.95.349-1.729.926-2.339-.101-.22-.405-1.106.079-2.306 0 0 .754-.234 2.475.893a8.908 8.908 0 0 1 2.25-.294c.765.004 1.53.1 2.25.294 1.71-1.127 2.464-.893 2.464-.893.483 1.2.18 2.086.09 2.306.573.61.922 1.388.922 2.339 0 3.349-2.104 4.085-4.106 4.3.315.261.607.796.607 1.612 0 1.167-.01 2.104-.01 2.387 0 .228.157.501.618.414 3.6-1.145 6.177-4.412 6.177-8.258C21 6.903 16.97 3 12 3z" fill="currentColor" />
</svg>
