<svg width="24" height="24" viewBox="0 0 24 24" fill="none" xmlns="http://www.w3.org/2000/svg"><path fill-rule="evenodd" d="M5 5.5A1.5 1.5 0 0 1 6.5 4h11A1.5 1.5 0 0 1 19 5.5v13a1.5 1.5 0 0 1-1.5 1.5h-11A1.5 1.5 0 0 1 5 18.5v-13ZM6.5 5a.5.5 0 0 0-.5.5v13a.5.5 0 0 0 .5.5h11a.5.5 0 0 0 .5-.5v-13a.5.5 0 0 0-.5-.5h-11Z" fill="#484848"/><path fill-rule="evenodd" d="M8 7.5a.5.5 0 0 1 .5-.5h5a.5.5 0 0 1 0 1h-5a.5.5 0 0 1-.5-.5ZM8 11a.5.5 0 0 1 .5-.5h6a.5.5 0 0 1 0 1h-6A.5.5 0 0 1 8 11Zm0 2a.5.5 0 0 1 .5-.5h2a.5.5 0 0 1 0 1h-2A.5.5 0 0 1 8 13Zm0 3.5a.5.5 0 0 1 .5-.5h6a.5.5 0 0 1 0 1h-6a.5.5 0 0 1-.5-.5Z" fill="#484848"/></svg>