<svg width="24" height="24" viewBox="0 0 24 24" fill="none" xmlns="http://www.w3.org/2000/svg"><path fill-rule="evenodd" d="M16 12a4 4 0 1 0-8 0 4 4 0 0 0 8 0Zm1 0a5 5 0 1 0-10 0 5 5 0 0 0 10 0ZM2 12a.5.5 0 0 1 .5-.5H5a.5.5 0 0 1 0 1H2.5A.5.5 0 0 1 2 12ZM18.5 12a.5.5 0 0 1 .5-.5h2.5a.5.5 0 0 1 0 1H19a.5.5 0 0 1-.5-.5ZM4.929 19.071a.5.5 0 0 1 0-.707l1.768-1.768a.5.5 0 1 1 .707.707l-1.768 1.768a.5.5 0 0 1-.707 0ZM16.596 7.404a.5.5 0 0 1 0-.707l1.768-1.768a.5.5 0 1 1 .707.707l-1.768 1.768a.5.5 0 0 1-.707 0ZM12 22a.5.5 0 0 1-.5-.5V19a.5.5 0 0 1 1 0v2.5a.5.5 0 0 1-.5.5ZM12 5.5a.5.5 0 0 1-.5-.5V2.5a.5.5 0 0 1 1 0V5a.5.5 0 0 1-.5.5ZM19.071 19.071a.5.5 0 0 1-.707 0l-1.768-1.768a.5.5 0 1 1 .707-.707l1.768 1.768a.5.5 0 0 1 0 .707ZM7.404 7.404a.5.5 0 0 1-.707 0L4.929 5.636a.5.5 0 0 1 .707-.707l1.768 1.768a.5.5 0 0 1 0 .707Z" fill="#484848"/></svg>