<svg width="24" height="24" viewBox="0 0 24 24" fill="none" xmlns="http://www.w3.org/2000/svg"><path fill-rule="evenodd" d="M7.5 6.5A1.5 1.5 0 0 1 9 5h6a1.5 1.5 0 0 1 1.5 1.5V8h3a.5.5 0 0 1 0 1H18v9.5a1.5 1.5 0 0 1-1.5 1.5h-9A1.5 1.5 0 0 1 6 18.5V9H4.5a.5.5 0 1 1 0-1h3V6.5Zm1 1.5h7V6.5A.5.5 0 0 0 15 6H9a.5.5 0 0 0-.5.5V8ZM7 9v9.5a.5.5 0 0 0 .5.5h9a.5.5 0 0 0 .5-.5V9H7Zm3.5 2a.5.5 0 0 1 .5.5v4a.5.5 0 0 1-1 0v-4a.5.5 0 0 1 .5-.5Zm3 0a.5.5 0 0 1 .5.5v4a.5.5 0 0 1-1 0v-4a.5.5 0 0 1 .5-.5Z" fill="#484848"/></svg>