<?xml version="1.0" standalone="no"?>
<!DOCTYPE svg PUBLIC "-//W3C//DTD SVG 20010904//EN"
 "http://www.w3.org/TR/2001/REC-SVG-20010904/DTD/svg10.dtd">
<svg version="1.0" xmlns="http://www.w3.org/2000/svg"
 width="700.000000pt" height="700.000000pt" viewBox="0 0 700.000000 700.000000"
 preserveAspectRatio="xMidYMid meet">
<metadata>
Created by potrace 1.14, written by Peter Selinger 2001-2017
</metadata>
<g transform="translate(0.000000,700.000000) scale(0.100000,-0.100000)"
fill="#000000" stroke="none">
<path d="M2593 6118 c-45 -4 -97 -9 -115 -12 -80 -14 -96 -17 -138 -27 -497
-118 -900 -402 -1175 -827 -77 -120 -175 -336 -211 -462 -42 -154 -57 -233
-71 -375 -12 -127 -6 -332 13 -450 11 -68 14 -84 34 -160 12 -44 22 -84 24
-90 31 -123 130 -340 214 -470 286 -445 729 -742 1252 -840 14 -3 36 -7 50 -9
83 -16 230 -19 795 -20 367 -1 651 2 680 8 61 12 132 50 184 99 207 196 117
549 -161 628 -32 9 -212 13 -683 14 -670 2 -670 2 -835 40 -35 8 -131 45 -186
71 -223 108 -409 290 -517 509 -60 122 -86 204 -114 359 -14 79 -4 306 16 374
5 17 8 32 6 32 -2 0 9 38 25 84 82 242 235 447 436 584 116 79 301 157 419
176 17 3 46 8 65 12 19 4 582 8 1250 9 l1215 2 58 22 c80 31 135 76 183 149
133 202 46 464 -185 553 l-56 22 -1195 1 c-657 1 -1232 -2 -1277 -6z"/>
<path d="M3057 4618 c-109 -15 -221 -99 -272 -202 -103 -210 1 -450 230 -526
32 -11 178 -14 700 -16 363 -1 671 -5 685 -8 13 -3 42 -8 63 -11 180 -27 435
-161 572 -299 276 -280 386 -630 319 -1021 -25 -151 -106 -329 -210 -465 -171
-222 -443 -391 -688 -425 -23 -3 -50 -9 -61 -12 -11 -4 -564 -7 -1230 -8 -665
-1 -1226 -5 -1245 -9 -106 -25 -223 -125 -261 -224 -31 -79 -34 -184 -8 -259
38 -111 115 -190 228 -234 l56 -23 1210 0 c666 0 1239 3 1275 7 120 12 155 18
275 48 421 102 787 343 1050 691 165 218 299 510 340 743 31 170 38 245 39
370 1 511 -194 986 -550 1341 -311 309 -710 498 -1144 540 -97 9 -1310 11
-1373 2z"/>
</g>
</svg>
