<svg width="100%" height="98%" viewBox="0 0 600 588" fill="none" xmlns="http://www.w3.org/2000/svg">
  <g clip-path="url(#clip0)">
  <path d="M600 132.179v42.435l-39.257-17.231-15.932-6.994-12.397-5.441-63.73-27.979-12.397-5.441-15.932-6.994L211.088 3.886h96.668L600 132.179z" style="fill: var(--secondary-clr)" />
  <path d="M515.285 102.591c28.329 0 51.295-22.966 51.295-51.296S543.614 0 515.285 0c-28.33 0-51.296 22.966-51.296 51.295 0 28.33 22.966 51.296 51.296 51.296z" style="fill: var(--call-to-action-clr)"/>
  <path d="M542.487 290.674a9.326 9.326 0 119.326-9.327 9.335 9.335 0 01-9.326 9.327zm0-17.099a7.77 7.77 0 00-7.623 9.289 7.774 7.774 0 0010.597 5.664 7.78 7.78 0 004.798-7.181 7.785 7.785 0 00-7.772-7.772zM20.207 162.435H0v-20.207h20.207v20.207zm-18.653-1.554h17.099v-17.099H1.554v17.099zM320.985 23.316h-20.208V3.11h20.208v20.207zm-18.653-1.554h17.098V4.663h-17.098v17.099z" fill="#3F3D56"/>
  <path d="M236.658 126.389H92.098v117.357h144.56V126.389z" style="fill: var(--call-to-action-clr)"/>
  <path d="M492.358 279.498H92.098v12.435h400.26v-12.435z" style="fill: var(--secondary-clr)" />
  <path d="M227.332 237.529H81.218V118.617h146.114v118.912zm-144.56-1.555h143.005V120.171H82.772v115.803z" fill="#3F3D56"/>
  <path d="M434.067 158.643H294.171v12.435h139.896v-12.435z" style="fill: var(--call-to-action-clr)"/>
  <path opacity=".3" d="M492.357 192.062H294.171v12.436h198.186v-12.436z" style="fill: var(--call-to-action-clr)"/>
  <path d="M424.741 164.86H283.29v-13.989h141.451v13.989zm-139.897-1.554h138.342v-10.881H284.844v10.881zM483.031 198.28H283.29v-13.99h199.741v13.99zm-198.187-1.554h196.633v-10.881H284.844v10.881zM483.031 285.715H81.218v-13.989H483.03v13.989zm-400.259-1.554h398.705V273.28H82.772v10.881z" fill="#3F3D56"/>
  <path d="M492.358 318.358H92.098v12.435h400.26v-12.435z" style="fill: var(--secondary-clr)" />
  <path d="M483.031 324.575H81.218v-13.989H483.03v13.989zm-400.259-1.554h398.705V312.14H82.772v10.881z" fill="#3F3D56"/>
  <path d="M492.358 357.218H92.098v12.435h400.26v-12.435z" style="fill: var(--secondary-clr)" />
  <path d="M483.031 363.435H81.218v-13.989H483.03v13.989zm-400.259-1.554h398.705V351H82.772v10.881z" fill="#3F3D56"/>
  <path d="M492.358 396.078H92.098v12.435h400.26v-12.435z" style="fill: var(--secondary-clr)" />
  <path d="M483.031 402.296H81.218v-13.99H483.03v13.99zm-400.259-1.555h398.705V389.86H82.772v10.881z" fill="#3F3D56"/>
  <path d="M492.358 434.938H92.098v12.435h400.26v-12.435z" style="fill: var(--secondary-clr)" />
  <path d="M483.031 441.156H81.218v-13.99H483.03v13.99zm-400.259-1.555h398.705V428.72H82.772v10.881z" fill="#3F3D56"/>
  <path d="M492.358 473.798H92.098v12.435h400.26v-12.435z" style="fill: var(--secondary-clr)" />
  <path d="M483.031 480.016H81.218v-13.99H483.03v13.99zm-400.259-1.555h398.705V467.58H82.772v10.881z" fill="#3F3D56"/>
  <path d="M516.451 555.026H58.29V50.223h458.161v504.803zm-456.607-1.555h455.052V51.777H59.844v501.694z" fill="#3F3D56"/>
  <path d="M48.498 564.342a.377.377 0 00-.078.039 96.69 96.69 0 002.572-6.07c.094-.241.18-.49.273-.731-.008.062-.008.125-.016.195-.023.388-.055.777-.086 1.173a29.397 29.397 0 00-.093 1.858c-.008.194-.008.38-.008.575.003.757.081 1.512.234 2.254h-.032c-.194.015-.373.023-.56.054a7.614 7.614 0 00-2.12.606.466.466 0 00-.086.047z" fill="url(#paint0_linear)"/>
  <path d="M63.214 259.073c.083 3.246 1.183 6.39 1.355 9.629-9.558.476-18.985-4.16-28.448-2.74 2.645-1.712 4.06-4.797 4.892-7.834a32.487 32.487 0 00.933-12.036 5.282 5.282 0 00-.119-.666c-.35-1.587-1.26-3.834-1.016-5.082.32-1.653 1.878-1.326 3.281-1.231 4.278.326 8.535.876 12.756 1.647 1.1.19 11.81 2.865 11.97 2.585a50.417 50.417 0 00-4.635 9.552 18.625 18.625 0 00-.97 6.176zM157.735 249.046a13.984 13.984 0 01-2.918 2.942c-.726.594-1.469 1.201-2.247 1.747a9.626 9.626 0 01-4.779 1.944c-2.277.155-7.109-1.183-8.524-3.132a5.655 5.655 0 01-.814-3.264c.024-1.553.288-3.093.784-4.565a25.446 25.446 0 013.686-6.669c1.646-2.288 3.477-4.541 5.926-5.926a22.856 22.856 0 012.52-1.159c1.486-.606 2.966-1.218 4.452-1.825.253-.123.528-.196.808-.214 1.195.012 1.415 1.837.737 2.824-1.355 1.985-4.404 2.538-5.26 4.791a3.413 3.413 0 013.174 2.46c.034.368.184.716.428.993.392.315 1.005.137 1.451.374.79.423.445 1.599.528 2.491.195.773.467 1.524.815 2.241.168.674.186 1.376.053 2.058a4.753 4.753 0 01-.82 1.889z" fill="#A0616A"/>
  <path d="M25.983 574.437c.736-.735 1.938-.61 2.965-.447a110.029 110.029 0 0016.672 1.348c.7-3.413-1.33-6.731-1.984-10.153a9.173 9.173 0 00-.66-2.568c-.786-1.508-2.56-2.198-4.224-2.549-3.005-.634-7.701-1.752-9.38 1.285-2.013 3.645-2.657 9.028-3.389 13.084z" fill="#65617D"/>
  <path d="M87.067 561.544c-2.265 1.545-5.076 2.027-7.798 2.378-2.729.344-5.528.612-7.995 1.824-2.128 1.052-3.923 2.776-6.176 3.531a12.865 12.865 0 01-6.413.101c-2.533-.475-5.231-1.397-6.598-3.584-1.219-1.944-1.088-4.411-.922-6.699.197-2.586.389-5.175.577-7.769a3.698 3.698 0 01.482-1.878c1.83-2.669 6.282 1.117 8.666 1.111 3.774-.005 7.828-2.05 10.55-4.553.239-.248.516-.457.82-.618 1.077-.481 2.152.41 3.11 1.189.106.089.213.178.32.262 2.206 1.747 5.166 2.104 7.888 2.811 2.728.707 5.647 2.134 6.49 4.821.056.169.1.342.132.517.493 2.472-1.01 5.106-3.133 6.556z" fill="#3F3D56"/>
  <path d="M87.067 561.544c-2.265 1.545-5.076 2.027-7.798 2.378-2.729.344-5.528.612-7.995 1.824-2.128 1.052-3.923 2.776-6.176 3.531a12.865 12.865 0 01-6.413.101c-2.533-.475-5.231-1.397-6.598-3.584-1.219-1.944-1.088-4.411-.922-6.699.197-2.586.389-5.175.577-7.769a3.698 3.698 0 01.482-1.878c1.83-2.669 6.282 1.117 8.666 1.111 3.774-.005 7.828-2.05 10.55-4.553.239-.248.516-.457.82-.618 1.077-.481 2.152.41 3.11 1.189.106.089.213.178.32.262 2.206 1.747 5.166 2.104 7.888 2.811 2.728.707 5.647 2.134 6.49 4.821.056.169.1.342.132.517.493 2.472-1.01 5.106-3.133 6.556z" fill="#2F2E41"/>
  <path d="M87.067 562.414c-2.265 1.545-5.076 2.027-7.798 2.377-2.729.345-5.528.613-7.995 1.825-2.128 1.052-3.923 2.776-6.176 3.531a12.865 12.865 0 01-6.413.101 10.59 10.59 0 01-6.598-4.454c-1.219-1.944-1.088-4.411-.922-6.699.197-2.586.389-5.175.577-7.769a3.698 3.698 0 01.482-1.878c1.83-2.669 6.282 1.117 8.666 1.112 3.774-.006 7.828-2.051 10.55-4.554.239-.248.516-.457.82-.618 1.077-.481 2.152.41 3.11 1.189a22.331 22.331 0 01-2.652 5.48 11.396 11.396 0 01-8.315 5.201c-1.688.125-3.418-.208-5.053.226-1.628.434-3.15 2.104-2.573 3.691.564 1.546 2.562 1.885 4.208 1.974 2.306.125 4.672.238 6.86-.482 1.337-.445 2.561-1.182 3.863-1.723 5.534-2.295 12.524-1.011 17.095-4.886.433-.397.9-.755 1.397-1.07 1.196 2.505-1.01 5.976-3.133 7.426z" fill="#E8EAF2"/>
  <path opacity=".05" d="M87.067 562.414c-2.265 1.545-5.076 2.027-7.798 2.377-2.729.345-5.528.613-7.995 1.825-2.128 1.052-3.923 2.776-6.176 3.531a12.865 12.865 0 01-6.413.101 10.59 10.59 0 01-6.598-4.454c-1.219-1.944-1.088-4.411-.922-6.699.197-2.586.389-5.175.577-7.769a3.698 3.698 0 01.482-1.878c1.83-2.669 6.282 1.117 8.666 1.112 3.774-.006 7.828-2.051 10.55-4.554.239-.248.516-.457.82-.618 1.077-.481 2.152.41 3.11 1.189a22.331 22.331 0 01-2.652 5.48 11.396 11.396 0 01-8.315 5.201c-1.688.125-3.418-.208-5.053.226-1.628.434-3.15 2.104-2.573 3.691.564 1.546 2.562 1.885 4.208 1.974 2.306.125 4.672.238 6.86-.482 1.337-.445 2.561-1.182 3.863-1.723 5.534-2.295 12.524-1.011 17.095-4.886.433-.397.9-.755 1.397-1.07 1.196 2.505-1.01 5.976-3.133 7.426z" fill="#000"/>
  <path d="M27.02 393.074a34.03 34.03 0 004.663 25.108c1.297 2.009 2.816 3.895 3.79 6.078a27.628 27.628 0 011.48 4.817l4.201 17.389c1.134 4.694 2.277 9.479 1.936 14.296-.237 3.357-1.084 7.131.985 9.785.5.507.92 1.085 1.25 1.715a4.34 4.34 0 01.02 2.26c-2.125 12.624-3.7 25.823.138 38.036 3.48 11.069 3.678 23.335 6.637 34.555.366 1.389.785 2.854 1.838 3.832a6.012 6.012 0 002.755 1.309c4.36 1.038 8.964-.178 13.03-2.062 2.859-1.324 5.935-3.646 5.69-6.787-.115-1.493-.988-2.803-1.58-4.179-1.162-2.699-1.255-5.715-1.569-8.637-.787-7.337-3.049-14.421-4.758-21.599-1.71-7.179-2.871-14.68-1.425-21.916A191.723 191.723 0 0180.2 443.7c.279-.736.72-1.4 1.291-1.942a13.366 13.366 0 001.828-1.248c.444-.686.73-1.463.837-2.273.635-2.291 2.524-3.98 3.79-5.992 3.198-5.079 2.184-11.59 2.066-17.59-.115-5.835.725-11.724-.231-17.481-.957-5.758-4.255-11.643-9.806-13.447-2.75-.894-5.722-.691-8.599-.406-15.242 1.508-30.053 4.277-44.357 9.753z" fill="#2F2E41"/>
  <path opacity=".1" d="M27.02 393.074a34.03 34.03 0 004.663 25.108c1.297 2.009 2.816 3.895 3.79 6.078a27.628 27.628 0 011.48 4.817l4.201 17.389c1.134 4.694 2.277 9.479 1.936 14.296-.237 3.357-1.084 7.131.985 9.785.5.507.92 1.085 1.25 1.715a4.34 4.34 0 01.02 2.26c-2.125 12.624-3.7 25.823.138 38.036 3.48 11.069 3.678 23.335 6.637 34.555.366 1.389.785 2.854 1.838 3.832a6.012 6.012 0 002.755 1.309c4.36 1.038 8.964-.178 13.03-2.062 2.859-1.324 5.935-3.646 5.69-6.787-.115-1.493-.988-2.803-1.58-4.179-1.162-2.699-1.255-5.715-1.569-8.637-.787-7.337-3.049-14.421-4.758-21.599-1.71-7.179-2.871-14.68-1.425-21.916A191.723 191.723 0 0180.2 443.7c.279-.736.72-1.4 1.291-1.942a13.366 13.366 0 001.828-1.248c.444-.686.73-1.463.837-2.273.635-2.291 2.524-3.98 3.79-5.992 3.198-5.079 2.184-11.59 2.066-17.59-.115-5.835.725-11.724-.231-17.481-.957-5.758-4.255-11.643-9.806-13.447-2.75-.894-5.722-.691-8.599-.406-15.242 1.508-30.053 4.277-44.357 9.753z" fill="#000"/>
  <path d="M89.1 429.671a36.436 36.436 0 01-.767 6.746 1960.933 1960.933 0 01-8.59 45.109c-.267 1.302-.528 2.604-.879 3.882a31.483 31.483 0 01-5.819 11.448c-12.667 15.787-13.76 38.713-20.632 57.751-.463 1.29-.927 2.58-1.42 3.852a96.216 96.216 0 01-4.238 9.457 2.7 2.7 0 01-.874 1.129 2.591 2.591 0 01-1.379.268 40.263 40.263 0 01-17.85-4.06 3.7 3.7 0 01-1.896-1.575 3.81 3.81 0 01-.202-1.813c.19-3.774.422-7.686 2.223-11.002a23.458 23.458 0 014.399-5.332c.535-11.846 1.706-23.717 4.309-35.283 1.337-5.915 2.99-11.894 6.425-16.893 2.533-3.691 6.164-7.335 5.719-11.787-.197-1.956-1.017-4.393.576-5.54.696-.505 1.724-.571 2.193-1.29.19-.339.295-.718.31-1.105a27.295 27.295 0 00-.565-9.136 48.206 48.206 0 01-1.361-5.956c-.203-2.033.142-4.232 1.498-5.754.083-4.066-.03-8.286.053-12.346a22.892 22.892 0 00-.57-6.894c-.31-1.064-.78-2.081-1.017-3.169-.85-3.905 1.272-8.583-1.254-11.68-1.052-1.283-2.675-1.925-4.054-2.853-2.752-1.836-4.56-4.844-5.564-8a44.156 44.156 0 01-1.575-9.796 10.072 10.072 0 01-.023-2.116c.044-.364.14-.721.285-1.058.784-1.765 2.895-2.449 4.773-2.901a154.551 154.551 0 0136.448-4.261c4.541-3.091 7.097-1.986 9.023 1.289 1.064 2 1.924 4.1 2.568 6.271.88 2.657.933 17.529 1.79 20.198 1.11 3.471-2.105 10.556-2.063 14.2z" fill="#2F2E41"/>
  <path d="M6.993 294.338c-.337 2.34.788 4.639.913 7 .108 2.063-.548 4.078-.924 6.109-1.466 7.927 1.35 15.957 4.218 23.492a12.102 12.102 0 011 3.863c.077 2.46-1.34 4.713-1.727 7.143-.815 5.105 2.95 9.908 3.029 15.077.036 2.381-.714 4.803-.118 7.108.397 1.538 1.357 2.86 2.039 4.295 1.207 2.543 1.53 5.428 2.683 7.996 2.082 4.642 6.556 7.672 10.814 10.457 2.422-.808 5.04-1.767 6.37-3.946a9.78 9.78 0 001.113-3.461c.92-5.287.888-10.688.854-16.055a98.997 98.997 0 00-.735-13.82c-.86-5.831-2.752-11.453-4.11-17.189-1.711-7.234-2.588-14.709-5.254-21.648-2.343-6.098-5.993-11.572-9.834-16.815-1.466-2-2.623-4.86-5.467-4.398a5.97 5.97 0 00-4.864 4.792z" fill="#3F3D56"/>
  <path opacity=".05" d="M6.993 294.338c-.337 2.34.788 4.639.913 7 .108 2.063-.548 4.078-.924 6.109-1.466 7.927 1.35 15.957 4.218 23.492a12.102 12.102 0 011 3.863c.077 2.46-1.34 4.713-1.727 7.143-.815 5.105 2.95 9.908 3.029 15.077.036 2.381-.714 4.803-.118 7.108.397 1.538 1.357 2.86 2.039 4.295 1.207 2.543 1.53 5.428 2.683 7.996 2.082 4.642 6.556 7.672 10.814 10.457 2.422-.808 5.04-1.767 6.37-3.946a9.78 9.78 0 001.113-3.461c.92-5.287.888-10.688.854-16.055a98.997 98.997 0 00-.735-13.82c-.86-5.831-2.752-11.453-4.11-17.189-1.711-7.234-2.588-14.709-5.254-21.648-2.343-6.098-5.993-11.572-9.834-16.815-1.466-2-2.623-4.86-5.467-4.398a5.97 5.97 0 00-4.864 4.792z" fill="#000"/>
  <path d="M58.918 252.936c12.19 0 22.072-9.882 22.072-22.072s-9.882-22.072-22.072-22.072-22.072 9.882-22.072 22.072 9.882 22.072 22.072 22.072z" fill="#A0616A"/>
  <path d="M71.764 266.996c-.963 1.114-2.254 2.341-3.681 1.982a5.01 5.01 0 01-1.432-.767c-2.545-1.64-5.668-2.025-8.661-2.476a127.877 127.877 0 01-17.836-4.009 18.169 18.169 0 00-5.276-1.073c-3.741.019-7.056 2.506-9.4 5.421-2.345 2.916-4.006 6.327-6.307 9.277-1.639 2.102-3.59 3.954-5.121 6.136-3.865 5.509-4.695 12.697-3.698 19.352.998 6.654 3.657 12.929 6.292 19.121a66.476 66.476 0 005.136 10.357c-.889 5.056-.42 10.839 1.985 15.375.783 1.477 1.742 2.917 2.001 4.569a11.446 11.446 0 01-.138 3.352l-1.124 7.991c-.342 2.433-.684 4.867-1.127 7.284-.81 4.423-1.91 9.224.138 13.228 2.453 4.794-.124 10.938.521 16.285a81.944 81.944 0 0121.508-5.11c4.743-.465 9.575-.524 14.151-1.855 2.858-.832 5.568-2.148 8.47-2.811a39.014 39.014 0 017.142-.729c5.289-.213 10.615-.425 15.851.355.424.063.94.097 1.194-.249.113-.187.168-.404.16-.624a10.556 10.556 0 00-1.354-5.619c-.668-1.178-1.595-2.33-1.57-3.684a5.6 5.6 0 01.46-1.829l2.319-6.187c1.958-5.222 1.026-11.289 2.043-16.773a98.485 98.485 0 001.525-12.976c.188-3.722.071-7.752-2.174-10.726a12.328 12.328 0 01-1.697-2.36 7.162 7.162 0 01-.404-2.822c-.05-7.447.154-14.89.613-22.33-1.959-3.517-4-7.114-5.959-10.631-2.279-4.093-4.59-8.271-5.51-12.864-.609-3.041-.588-6.172-1.023-9.243a4.038 4.038 0 00-.78-2.158c-.749-.847-2.013-.968-3.143-.933a13.904 13.904 0 00-4.094.753z" fill="#3F3D56"/>
  <path d="M79.135 301.471c1.344 1.675 2.744 3.397 4.65 4.386 2.193 1.138 4.775 1.164 7.245 1.112a173.114 173.114 0 0030.276-3.326 18.934 18.934 0 003.335-.894 17.555 17.555 0 003.37-2.102c3.284-2.361 6.614-4.766 9.111-7.947a26.716 26.716 0 005.401-13.246c2.376-2.188 3.637-5.299 4.826-8.302a12.679 12.679 0 001.1-4.032c.064-1.427-.882-2.924-.621-4.329a11.439 11.439 0 013.503-6.3c.385-.275.675-.661.833-1.107a1.789 1.789 0 00-.199-1.079c-1.016-2.264-3.34-3.724-5.75-4.317a24.647 24.647 0 00-7.408-.294 17.35 17.35 0 00-2.427.644l-1.726 4.545a5.883 5.883 0 01-1.128 2.074c-.384.349-.794.669-1.225.958a7.004 7.004 0 00-2.429 6.126 6.586 6.586 0 00-3.555 3.292 6.587 6.587 0 00-.338 4.833 7.764 7.764 0 00-5.691 5.011 3.737 3.737 0 01-.743 1.559 3.025 3.025 0 01-1.988.611c-1.95.121-3.655 1.657-5.423.824a11.023 11.023 0 00-6.442-.901 4.85 4.85 0 01-1.374.122 3.623 3.623 0 01-1.128-.393 9.022 9.022 0 00-2.557-1.006 2.393 2.393 0 00-2.425.937c-.62-.678-.988-1.548-1.552-2.273a2.49 2.49 0 00-2.353-1.123c.587-.523-.014-1.565-.778-1.756a9.973 9.973 0 00-2.348.086c-2.041-.011-3.607-1.865-5.59-2.35-1.823-.446-4.252.086-5.187-1.541-.33-.577-.396-1.36-.96-1.713a1.858 1.858 0 00-1.23-.143 12.038 12.038 0 00-3.725 1.131c-1.911 7.476-.908 15.24.548 22.817a20.132 20.132 0 004.102 9.406zM68.037 261.457c-2.368-1.474-5.156-2.099-7.9-2.6a16.65 16.65 0 00-5.026-.362c-1.553.194-3.045.794-4.608.881-2.195.122-4.298-.768-6.418-1.348-2.12-.58-4.569-.802-6.354.481a2.74 2.74 0 01-1.382.734 2.41 2.41 0 01-1.43-.701 8.147 8.147 0 00-10.15.535c-4.046 3.795-3.588 11.209-8.33 14.087-1.308.794-2.98 1.213-3.742 2.538-.185.423-.4.83-.646 1.221a3.302 3.302 0 01-1.14.812 22.152 22.152 0 00-3.91 2.248 5.588 5.588 0 00-2.25 3.771 7.105 7.105 0 00.692 3.172 29.766 29.766 0 0028.923 18.495 4.576 4.576 0 003.03-.946 5.715 5.715 0 001.062-1.749c2.23-4.675 6.417-8.126 9.076-12.571 1.585-2.649 2.602-5.611 4.252-8.221 2.5-3.955 6.304-6.877 10.027-9.712 2.099-1.599 4.436-3.277 7.073-3.165 2.35.1 4.06.227 3.199-2.656a9.237 9.237 0 00-4.048-4.944z" fill="#3F3D56"/>
  <path opacity=".05" d="M68.037 261.457c-2.368-1.474-5.156-2.099-7.9-2.6a16.65 16.65 0 00-5.026-.362c-1.553.194-3.045.794-4.608.881-2.195.122-4.298-.768-6.418-1.348-2.12-.58-4.569-.802-6.354.481a2.74 2.74 0 01-1.382.734 2.41 2.41 0 01-1.43-.701 8.147 8.147 0 00-10.15.535c-4.046 3.795-3.588 11.209-8.33 14.087-1.308.794-2.98 1.213-3.742 2.538-.185.423-.4.83-.646 1.221a3.302 3.302 0 01-1.14.812 22.152 22.152 0 00-3.91 2.248 5.588 5.588 0 00-2.25 3.771 7.105 7.105 0 00.692 3.172 29.766 29.766 0 0028.923 18.495 4.576 4.576 0 003.03-.946 5.715 5.715 0 001.062-1.749c2.23-4.675 6.417-8.126 9.076-12.571 1.585-2.649 2.602-5.611 4.252-8.221 2.5-3.955 6.304-6.877 10.027-9.712 2.099-1.599 4.436-3.277 7.073-3.165 2.35.1 4.06.227 3.199-2.656a9.237 9.237 0 00-4.048-4.944z" fill="#000"/>
  <path d="M79.524 581.361c-1.6 1.492-3.798 2.146-5.932 2.61-4.873.95-9.807 1.56-14.765 1.824-1.605.119-3.216.244-4.82.369-4.708.357-9.422.719-14.147.737a97.574 97.574 0 01-17.398-1.504 1.474 1.474 0 01-1.587-1.765c.102-5.88.819-11.733 2.14-17.464.546-2.353 4.767 2.925 4.957 3.145 1.17 1.331 2.056 1.943 3.834 2.039 4.856.267 10.295-2.687 14.152-5.314a18.028 18.028 0 012.622-1.623 7.693 7.693 0 012.122-.606c2.498-.231 5.01.278 7.221 1.462 2.901 1.438 5.445 3.507 8.316 4.987a23.397 23.397 0 007.454 2.36c2.627.362 5.766.535 7.115 2.811a.018.018 0 01.005.008.023.023 0 010 .01c1.106 1.884.304 4.428-1.29 5.914z" fill="#2F2E41"/>
  <path d="M79.524 582.231c-1.599 1.492-3.798 2.146-5.932 2.61-4.873.95-9.807 1.56-14.765 1.824-1.605.119-3.216.244-4.82.369-4.708.356-9.422.719-14.147.737a97.574 97.574 0 01-17.398-1.504 1.922 1.922 0 01-1.38-.666 7.71 7.71 0 01-1.077-1.969c.1-5.873 1.69-11.74 3.01-17.464.546-2.353 4.767 2.925 4.957 3.145 1.17 1.331 2.056 1.943 3.834 2.038 4.856.268 10.295-2.686 14.152-5.313a18.022 18.022 0 012.622-1.623 7.693 7.693 0 012.122-.606c-.624 3.495-5.635 7.715-8.22 8.999-5.232 2.597-11.449 1.301-17.286 1.605a2.402 2.402 0 00-1.224.297c-.702.463-.743 1.456-.72 2.294.048 1.391.226 3.026 1.433 3.733a4.12 4.12 0 001.938.404c14.384.63 28.795.125 43.1-1.51a23.674 23.674 0 007.02-1.563 18.18 18.18 0 004.07-2.621c1.838 1.444.304 5.298-1.29 6.784z" fill="#E8EAF2"/>
  <path d="M67.505 230.625c-.083 2.283 1.474 6.711-2.794 5.475-2.544-.737-3.263-3.751-6.49-3.079-3.258.683-3.971 4.648-5.065 7.251a13.881 13.881 0 01-10.057 8.126c-.911.212-1.86.21-2.77-.006-2.08-.595-3.27-2.74-4.12-4.732a37.093 37.093 0 01-1.824-5.195 21.934 21.934 0 01-.66-3.81v-.006a16.955 16.955 0 01-.012-2.633c.387-5.189 3.341-9.92 7.121-13.499 3.78-3.578 8.375-6.163 12.91-8.713a18.815 18.815 0 014.762-2.122 16.017 16.017 0 015.028-.208c2.208.094 4.378.604 6.396 1.503a9.028 9.028 0 012.253 1.581 6.773 6.773 0 011.95 3.258c.82 3.352-1.32 6.372-3.056 9.023-1.545 2.353-3.46 4.85-3.572 7.786z" fill="#2F2E41"/>
  <path d="M72.118 217.709a19.45 19.45 0 01-1.307 1.866 22.061 22.061 0 01-3.02 3.127 25.153 25.153 0 01-2.039 1.599 32.155 32.155 0 01-4.119 2.461c-4.173 2.104-8.69 3.423-13.184 4.725-2.936.856-5.874 1.71-8.815 2.562-3.073 2.324-13.368 9.95-15.097 8.999-2.04-1.123 9.133-9.032 9.133-9.032l.514.39c-1.635-1.029-2.49-3.412-2.86-5.475-.653-3.691-.962-7.525-.089-11.174.874-3.644 3.068-7.115 6.408-8.821 1.48-.761 3.275-1.278 4.345-2.449a3.07 3.07 0 00.422-.571 1.84 1.84 0 00.167-.303c.118-.321.276-.627.47-.909.611-.708 1.723-.494 2.65-.381.101.012.196.024.297.03.166.017.333.025.5.024 3.31.071 6.52-1.772 9.873-1.772 3.673-.006 6.8 2.122 10.033 3.573.654.297 1.272.564 1.855.838 2.336 1.088 4.095 2.247 5.058 5.338.559 1.807-.208 3.75-1.195 5.355z" fill="#3F3D56"/>
  <path opacity=".1" d="M33.89 233.928c.465.29.983.483 1.524.568a4.923 4.923 0 004.068-.61l-5.592.042z" fill="#000"/>
  </g>
  <defs>
    <linearGradient id="paint0_linear" x1="49.858" y1="564.381" x2="49.858" y2="557.58" gradientUnits="userSpaceOnUse">
      <stop stop-color="gray" stop-opacity=".25"/>
      <stop offset=".535" stop-color="gray" stop-opacity=".12"/>
      <stop offset="1" stop-color="gray" stop-opacity=".1"/>
    </linearGradient>
    <clipPath id="clip0">
      <path fill="#fff" d="M0 0h600v587.771H0z"/>
    </clipPath>
  </defs>
</svg>
