<svg width="100%" height="81%" viewBox="0 0 600 487" fill="none" xmlns="http://www.w3.org/2000/svg">
  <g clip-path="url(#clip0)">
    <path d="M404.241 446.934a614.997 614.997 0 01-83.505-5.472c-.903-.115-1.819-.244-2.729-.38a510.169 510.169 0 01-20.199-3.283c-29.738-5.438-57.781-13.381-83.35-23.609-85.087-34.035-138.586-26.791-168.481-14.722-32.354 13.063-44.79 34.434-44.913 34.648L0 433.512c.123-.217 12.72-21.907 45.428-35.142 19.177-7.76 41.423-11.151 66.127-10.082 30.837 1.335 65.611 9.668 103.358 24.766 25.493 10.197 53.457 18.118 83.115 23.542a510.437 510.437 0 0020.155 3.275c.906.135 1.814.263 2.715.378 75.027 10.321 147.405 4.097 194.914-2.941 39.159-5.801 64.36-12.583 64.61-12.651l.32 1.181c-.25.068-25.514 6.869-64.751 12.681a771.642 771.642 0 01-111.75 8.415zM404.324 95.741c-21.571 0-42.571-1.01-62.832-3.027-46.558-4.637-89.298-14.641-127.034-29.735C129.371 28.943 75.872 36.186 45.977 48.257 13.623 61.319 1.187 82.69 1.064 82.904L0 82.3c.123-.218 12.72-21.906 45.428-35.141 19.177-7.76 41.423-11.153 66.127-10.083 30.837 1.335 65.611 9.668 103.358 24.766 85.222 34.09 180.053 35.429 244.6 30.554 69.961-5.287 120.408-18.814 120.909-18.95l.32 1.18c-.502.137-51.039 13.691-121.111 18.988-18.761 1.418-37.235 2.127-55.307 2.127z" fill="#3F3D56"/>
    <path d="M401.156 5.916s-24.057-8.591-39.521 25.775c-15.465 34.367-39.522 72.169-39.522 72.169l13.747 3.437s3.436-24.056 12.028-27.493l-3.437 30.93s103.099 36.084 149.494-3.437l-1.718-12.028s6.873 1.718 6.873 12.028l5.155-5.155s-5.155-10.31-20.62-24.056c-10.151-9.023-13.639-26.188-14.837-36.92a44.682 44.682 0 00-10.286-24.33c-10.278-11.911-29.004-24.57-57.356-10.92z" fill="#2F2E41"/>
    <path d="M547.161 200.382s45.269 38.612 51.926 61.247c6.657 22.634-25.297 25.297-25.297 25.297l-69.236 6.657s-1.331 31.955-13.314 35.949c-11.983 3.995-2.433-52.841-2.433-52.841l67.674-19.057-30.623-31.954 21.303-25.298zM335.462 240.326l-5.326 70.566-29.292 119.83s-26.629 54.589-3.994 55.921c22.634 1.331 21.303-51.927 21.303-51.927l42.606-113.172 3.994-77.224-29.291-3.994zM410.024 116.501c24.266 0 43.937-19.671 43.937-43.937s-19.671-43.938-43.937-43.938c-24.267 0-43.938 19.672-43.938 43.938 0 24.266 19.671 43.937 43.938 43.937z" fill="#FBBEBE"/>
    <path d="M390.05 93.867s15.978 57.252-9.32 71.898c-25.297 14.646 63.91 25.297 87.876-18.64 0 0-42.607-14.646-30.624-53.258H390.05z" fill="#FBBEBE"/>
    <path d="M359.428 172.422l-7.989-2.663s-15.977 6.657-15.977 18.64-2.663 59.915-2.663 59.915l35.949 3.995-9.32-79.887z" fill="#6C63FF"/>
    <path d="M515.902 437.913c-49.151 7.282-120.789 13.162-195.081 2.943-.007-.734-.007-1.45-.007-2.147 0-4.155.16-8.262.478-12.323 3.806-50.002 29.565-91.688 39.532-106.135.502-.734.967-1.395 1.383-1.982 1.609-2.258 2.546-3.451 2.546-3.451s77.223-1.261 117.166 14.715a17.201 17.201 0 015.201 3.402c14.893 13.743 23.643 58.36 28.782 104.978z" fill="#2F2E41"/>
    <path d="M487.246 153.782s17.309-9.32 34.618 10.651l34.618 39.944-26.629 29.291-50.595-30.623 7.988-49.263z" fill="#6C63FF"/>
    <path d="M362.545 72.842c15.554-11.257 28.145-24.222 36.474-39.645 0 0 28.545 31.716 45.989 33.302 17.444 1.586 1.585-38.06 1.585-38.06l-31.716-7.929-30.131 3.172-23.787 15.858 1.586 33.302z" fill="#2F2E41"/>
    <path d="M461.949 144.462s-18.632 29.46-74.557 15.396l-31.735 8.739-4.218 1.162s3.995 79.887 14.646 94.533c10.652 14.646 7.989 22.634 5.326 23.966-2.663 1.331-9.32-1.332-5.326 5.325 3.995 6.658 9.32 2.663 3.995 6.658-5.326 3.994-7.989 18.64-7.989 18.64l125.156 15.977s-3.995-51.926 6.657-78.555c10.651-26.629 13.314-37.28 13.314-37.28l-7.988-66.573-37.281-7.988z" fill="#6C63FF"/>
    <path d="M201.837 118.396H30.514V332.55h171.323V118.396z" fill="#E6E6E6"/>
    <path d="M79.157 136.446H42.445v24.475h36.712v-24.475zM184.703 184.172H42.75v8.566h141.953v-8.566zM184.703 206.811H42.75v8.566h141.953v-8.566zM184.703 229.45H42.75v8.566h141.953v-8.566zM184.703 252.089H42.75v8.566h141.953v-8.566zM184.703 274.728H42.75v8.567h141.953v-8.567z" fill="#fff"/>
    <path d="M235.489 332.244a33.552 33.552 0 01-8.234 21.987 33.553 33.553 0 01-43.557 6.153 33.554 33.554 0 01-12.226-42.257 33.562 33.562 0 0140.115-18.054 33.561 33.561 0 0118.702 14.194 33.654 33.654 0 015.2 17.977z" fill="#6C63FF"/>
    <path d="M230.288 314.267l-33.126 33.121c-2.082-3.224-13.682-18.203-13.682-18.203a46.9 46.9 0 014.749-4.192l9.618 12.825 28.562-28.562a33.551 33.551 0 013.879 5.011z" fill="#fff"/>
  </g>
  <defs>
    <clipPath id="clip0">
      <path fill="#fff" d="M0 0h600v486.667H0z"/>
    </clipPath>
  </defs>
</svg>