<svg width="375" height="200" viewBox="0 0 375 200" fill="none" xmlns="http://www.w3.org/2000/svg" class="text-red-500">
  <path
    d="M45 68.3333V81.6667V68.3333ZM25 58.3333H31.6667H25ZM75 58.3333H68.3333H75ZM68.3333 58.3333V91.6667C68.3333 93.5077 66.841 95 65 95H35C33.159 95 31.6667 93.5077 31.6667 91.6667V58.3333H68.3333ZM68.3333 58.3333H63.3333H68.3333ZM31.6667 58.3333H36.6667H31.6667ZM36.6667 58.3333V51.6667C36.6667 49.8257 38.1591 48.3333 40 48.3333H60C61.841 48.3333 63.3333 49.8257 63.3333 51.6667V58.3333H36.6667ZM36.6667 58.3333H63.3333H36.6667ZM55 68.3333V81.6667V68.3333Z"
    stroke="currentColor"
    stroke-linecap="round"
    stroke-linejoin="round"
  />
  <path
    d="M212 136.667C212 136.667 213.667 125 187 125C160.334 125 162 136.667 162 136.667M212 136.667C212 136.667 213.667 148.333 187 148.333C160.334 148.333 162 136.667 162 136.667M212 136.667V150M162 136.667V150M212 150C212 150 213.667 161.667 187 161.667C160.333 161.667 162 150 162 150M212 150V163.333C212 163.333 213.667 175 187 175C160.333 175 162 163.333 162 163.333V150"
    stroke="var(--secondary-icon-clr)"
    stroke-linecap="round"
    stroke-linejoin="round"
  />
  <path
    d="M320 30.9093C321.901 30.222 323.783 30 325 30C326.217 30 328.099 30.222 330 30.9093M320 30.9093C315 32.7172 311.667 36.375 311.667 41.6667C311.667 53.3333 303.333 61.6667 303.333 61.6667C303.333 61.6667 307.503 65.8363 316.667 67.5803M320 30.9093C320 30.9093 320.269 25 325 25C329.731 25 330 30.9093 330 30.9093M330 30.9093C335 32.7172 338.333 36.375 338.333 41.6667C338.333 53.3333 346.667 61.6667 346.667 61.6667C346.667 61.6667 342.497 65.8363 333.333 67.5803M316.667 67.5803C319.09 68.0417 321.863 68.3333 325 68.3333C328.137 68.3333 330.91 68.0417 333.333 67.5803M316.667 67.5803C316.667 67.5803 318.333 75 325 75C331.667 75 333.333 67.5803 333.333 67.5803"
    stroke="var(--secondary-icon-clr)"
    stroke-linejoin="round"
  />
</svg>
