<svg viewBox="0 0 100 100" fill="none" xmlns="http://www.w3.org/2000/svg">
  <path fill-rule="evenodd" clip-rule="evenodd" d="M12.5 39.2863C12.5 24.4925 24.4925 12.5 39.2863 12.5H71.4288C72.8353 12.5215 74.177 13.0953 75.1641 14.0976C76.1511 15.0999 76.7044 16.4502 76.7044 17.8569C76.7044 19.2636 76.1511 20.6139 75.1641 21.6162C74.177 22.6184 72.8353 23.1923 71.4288 23.2137H39.2863C30.41 23.2137 23.2137 30.41 23.2137 39.2863C23.2137 48.1613 30.41 55.3575 39.2863 55.3575H55.3575C56.7641 55.379 58.1057 55.9528 59.0928 56.9551C60.0799 57.9574 60.6332 59.3077 60.6332 60.7144C60.6332 62.1211 60.0799 63.4714 59.0928 64.4737C58.1057 65.4759 56.7641 66.0498 55.3575 66.0712H39.2863C24.4925 66.0712 12.5 54.0788 12.5 39.2875V39.2863ZM60.7137 87.5C75.5075 87.5 87.5 75.5075 87.5 60.7137C87.5 45.9212 75.5075 33.9287 60.7137 33.9287H44.6425C43.9321 33.9179 43.2267 34.0484 42.5673 34.3128C41.9078 34.5771 41.3076 34.97 40.8014 35.4685C40.2952 35.967 39.8932 36.5612 39.6189 37.2165C39.3445 37.8718 39.2032 38.5752 39.2032 39.2856C39.2032 39.9961 39.3445 40.6994 39.6189 41.3547C39.8932 42.0101 40.2952 42.6043 40.8014 43.1028C41.3076 43.6013 41.9078 43.9941 42.5673 44.2585C43.2267 44.5228 43.9321 44.6534 44.6425 44.6425H60.7137C69.59 44.6425 76.7863 51.8387 76.7863 60.7137C76.7863 69.59 69.59 76.7863 60.7137 76.7863H28.5713C27.1647 76.8077 25.823 77.3816 24.8359 78.3838C23.8489 79.3861 23.2956 80.7364 23.2956 82.1431C23.2956 83.5499 23.8489 84.9001 24.8359 85.9024C25.823 86.9047 27.1647 87.4785 28.5713 87.5H60.7137Z" fill="url(#paint0_linear_855_2)"/>
  <defs>
    <linearGradient id="paint0_linear_855_2" x1="87.5" y1="12.5" x2="5.53" y2="78.895" gradientUnits="userSpaceOnUse">
      <stop stop-color="#B234FF"/>
      <stop offset="1" stop-color="#63A1FF"/>
    </linearGradient>
  </defs>
</svg>
